<svg width="16" height="16" viewBox="0 0 10.24 10.24" xmlns="http://www.w3.org/2000/svg"><path d="m7.68 1.707 1.707 1.707v5.12H.853V3.881c.202.307.484.662.853.963l.001 2.836h6.827V3.627L7.467 2.56h-.795a5 5 0 0 0-.555-.853zm0 4.693v.427H2.56V6.4zm0-1.28v.427H5.12V5.14l.032-.019zM3.627.853C5.568.853 6.4 2.987 6.4 2.987S5.568 5.12 3.627 5.12.853 2.987.853 2.987 1.685.854 3.626.854m0 .533c-1.226 0-1.941 1.141-2.166 1.6.225.459.94 1.6 2.166 1.6s1.941-1.141 2.166-1.6c-.225-.459-.94-1.6-2.166-1.6m0 .667c.536 0 .971.418.971.933s-.435.933-.971.933-.97-.418-.97-.933.435-.933.971-.933m0 .533c-.23 0-.416.179-.416.4s.186.4.416.4.416-.179.416-.4-.186-.4-.416-.4" fill-rule="evenodd"/></svg>